<svg id="Layer_1" data-name="Layer 1" xmlns="http://www.w3.org/2000/svg" xmlns:xlink="http://www.w3.org/1999/xlink" viewBox="0 0 1184 290"><defs><style>.cls-1,.cls-5{fill:#fff;}.cls-2{fill:url(#linear-gradient);}.cls-3{opacity:0.46;fill:url(#linear-gradient-2);}.cls-4{fill:url(#linear-gradient-3);}.cls-5{opacity:0.56;}</style><linearGradient id="linear-gradient" x1="264.52" y1="43.21" x2="191.27" y2="263.41" gradientUnits="userSpaceOnUse"><stop offset="0" stop-color="#ffeab0"/><stop offset="0.14" stop-color="#fadd89"/><stop offset="0.29" stop-color="#f6d268"/><stop offset="0.42" stop-color="#f3cb53"/><stop offset="0.5" stop-color="#f2c94c"/></linearGradient><linearGradient id="linear-gradient-2" x1="-1017.14" y1="-924.42" x2="-925.97" y2="-924.42" gradientTransform="translate(-1258.35 -913.75) rotate(180) scale(1.55 1.13)" gradientUnits="userSpaceOnUse"><stop offset="0.12" stop-color="#fff"/><stop offset="0.28" stop-color="#fff" stop-opacity="0.75"/><stop offset="0.48" stop-color="#fff" stop-opacity="0.49"/><stop offset="0.65" stop-color="#fff" stop-opacity="0.28"/><stop offset="0.8" stop-color="#fff" stop-opacity="0.13"/><stop offset="0.92" stop-color="#fff" stop-opacity="0.03"/><stop offset="1" stop-color="#fff" stop-opacity="0"/></linearGradient><linearGradient id="linear-gradient-3" x1="238.05" y1="106.37" x2="237.03" y2="192.93" gradientUnits="userSpaceOnUse"><stop offset="0" stop-color="#666"/><stop offset="0.34" stop-color="#4f4f4f"/><stop offset="0.74" stop-color="#3a3a3a"/><stop offset="1" stop-color="#333"/></linearGradient></defs><path class="cls-1" d="M626.8,150.37c-2.73,9.37-7.81,23.41-10.73,29.46-5.66,1.17-20.87,4.68-35.7,4.68-46.62,0-70.42-31-70.42-65.15,0-39.8,30.24-67.3,73.93-67.3,16.78,0,30.43,3.51,36.87,4.49.78,8.77,2.15,20.48,3.71,30.23l-6.05,1.37c-3.9-13.07-8.58-21.07-18.53-25.17-5.07-2.34-13.07-3.7-20.49-3.7-32.18,0-49.15,23.8-49.15,56,0,37.65,19.5,61.84,51.11,61.84,19.89,0,29.65-9.17,39.59-28.68Z"/><path class="cls-1" d="M785.77,60.25c-12.29.78-16.77,3.9-17.16,12.88-.2,4.48-.59,12.68-.59,30.62v21.07c0,19.9-2.34,35.11-13.65,47-9.17,9.56-22.44,12.49-35.9,12.49-11.31,0-23.41-2.34-32-9-11.7-9-17.36-22.43-17.36-45.25V80.34c0-17.55-1.56-18.72-17.16-20.09V54.79h51.3v5.46c-15.61,1-17.17,2.54-17.17,20.09v48.77c0,28.48,13.46,44.09,36.87,44.09,27.7,0,36.48-17.17,36.48-49.55v-19.9c0-17.94-.59-25.36-1-30.62-.58-8.78-5.07-12.1-19.5-12.88V54.79h46.81Z"/><path class="cls-1" d="M867.11,181.59v-5.47c12.68-1.56,14.24-3.51,11.51-10.92-2.53-7.61-6.44-17.36-10.53-29.65H826c-3.12,8.78-6,16.39-8.77,24.38-4.3,12.68-1.56,14.24,14.43,16.19v5.47H786.55v-5.47c12.29-1.56,15.41-2.92,22.24-20.48L849.17,53.23l6.24-1.17c12.29,33.36,25.75,70.22,38,104,6.24,17,8,18.53,21.84,20.09v5.47Zm-19.5-104c-6.25,16.78-12.88,34.53-18.73,49.94h36.48Z"/><path class="cls-1" d="M985.12,54.79c27.51,0,44.87,5.46,57,17,9.56,9.37,16.59,23,16.59,41.75,0,22.82-9.37,41.35-24.39,52.66-14.82,11.12-33.74,15.42-57.74,15.42H930.9v-5.47c16.77-1.56,17.55-2.92,17.55-18.92V79.37c0-16.78-2.34-17.56-17.55-19.12V54.79Zm-19.7,100.85c0,14.63,6.24,18.73,20.87,18.73,35.12,0,53.06-24,53.06-58.13,0-21.26-7.21-37.46-22.62-46.82-9-5.66-20.29-7.8-33.36-7.8-8.78,0-13.46,1.17-15.41,2.73-1.76,1.17-2.54,3.32-2.54,10.92Z"/><path class="cls-1" d="M1153.27,84.44c-3.32-12.87-8.78-25.55-27.12-25.55-15.21,0-20.48,11.12-20.48,21.26,0,13.46,8.58,20.29,24.78,28.68,23.4,12.09,33.55,21.06,33.55,39.59,0,20.49-17.75,36.09-42.92,36.09-11.7,0-21.85-3.31-29.84-6.44-1.56-5.46-3.9-18.72-5.27-29.26l6-1.56c3.9,13.07,12.48,30,32.77,30,14,0,22.63-9.75,22.63-22.43,0-15-8-21.07-25.17-30.43-20.48-11.12-32-20.48-32-38.62,0-17.36,14.44-33.75,40.19-33.75,10.92,0,21.65,2.93,25.74,3.71.78,7,1.56,14.82,3.13,27.5Z"/><path class="cls-1" d="M543.17,246.73c-1.64,5.5-5.71,9.67-13,9.67-10,0-15.23-7.94-15.23-17.71,0-9.38,5.16-17.91,15.28-17.91,7.49,0,11.9,4.17,13,10h-2.67c-1.59-4.51-4.52-7.49-10.52-7.49-8.63,0-12.25,7.89-12.25,15.38s3.57,15.28,12.45,15.28c5.65,0,8.53-2.93,10.27-7.19Z"/><path class="cls-1" d="M552.1,219.44v15.93a8.65,8.65,0,0,1,8.18-4.77c3.52,0,8.39,1.79,8.39,9.63V256h-2.48V240.72c0-4.91-2.24-7.69-6.35-7.69-4.92,0-7.74,3-7.74,9.13V256h-2.48V219.44Z"/><path class="cls-1" d="M595,248.76c0,2.43,0,6.3,0,7.24h-2.38a39.41,39.41,0,0,1-.15-4.31c-1,2.92-3.57,4.91-8,4.91-3.57,0-8.13-1.39-8.13-9V231.2h2.43V247c0,3.62,1.14,7.15,6,7.15,5.56,0,7.64-3.13,7.64-10.22V231.2H595Z"/><path class="cls-1" d="M603.15,256V219.44h2.48V256Z"/><path class="cls-1" d="M630.43,251.29a28.09,28.09,0,0,0,.35,4.71H628.4a16.08,16.08,0,0,1-.45-3.82c-.84,1.84-3,4.42-8.13,4.42-5.76,0-8.24-3.72-8.24-7.44,0-5.46,4.22-7.94,11.66-7.94H628v-2.53c0-2.48-.74-5.8-6.4-5.8-5,0-5.75,2.62-6.3,4.66h-2.48c.3-2.73,2-7,8.83-7,5.66,0,8.83,2.38,8.83,7.84ZM628,243.35h-4.86c-5.51,0-8.93,1.44-8.93,5.71,0,3.12,2.23,5.26,5.71,5.26,7.09,0,8.08-4.72,8.08-10.07Z"/><path class="cls-1" d="M655.88,244l-4.41,12h-2.73l12.75-34.72h3.17L678,256H675l-4.51-12Zm13.74-2.48c-3.87-10.32-5.85-15.28-6.54-17.61H663c-.85,2.63-3.08,8.78-6.2,17.61Z"/><path class="cls-1" d="M701.23,248.76c0,2.43,0,6.3,0,7.24H698.9a39.41,39.41,0,0,1-.15-4.31c-1,2.92-3.58,4.91-8,4.91-3.57,0-8.14-1.39-8.14-9V231.2h2.44V247c0,3.62,1.14,7.15,6.05,7.15,5.55,0,7.64-3.13,7.64-10.22V231.2h2.48Z"/><path class="cls-1" d="M728.51,219.44v29.42c0,2.38,0,4.66,0,7.14h-2.38c-.1-.59-.15-2.92-.15-4.17-1.24,3-4,4.77-8.33,4.77-6.45,0-10.32-5.26-10.32-12.7,0-7.64,4.22-13.3,11-13.3,5,0,6.95,2.14,7.69,3.72V219.44ZM710,243.8c0,6.79,3.52,10.47,7.79,10.47,6.55,0,8.33-4.52,8.33-11.27,0-6.39-1.54-10.06-7.88-10.06C713.33,232.94,710,236.85,710,243.8Z"/><path class="cls-1" d="M736.65,219.44h2.48v4.81h-2.48Zm0,11.76h2.48V256h-2.48Z"/><path class="cls-1" d="M767.36,243.55c0,6.9-3.82,13.05-11.21,13.05-6.7,0-10.87-5.51-10.87-13,0-7.09,3.92-13,11.11-13C763,230.6,767.36,235.76,767.36,243.55Zm-19.45,0c0,5.9,3.18,10.67,8.43,10.67s8.39-4.42,8.39-10.67c0-5.85-3-10.66-8.48-10.66C750.59,232.94,747.91,237.65,747.91,243.6Z"/><path class="cls-1" d="M787.2,221.28h11.51c9.53,0,16.12,6.64,16.12,17.06S808.39,256,798.66,256H787.2Zm2.68,32.24h8.39c9.17,0,13.69-6.45,13.69-15,0-7.64-4.07-14.73-13.69-14.73h-8.39Z"/><path class="cls-1" d="M822.23,243.9c0,6.4,3.27,10.37,8,10.37s6.25-2.63,7.14-4.67h2.53c-1,3.28-3.67,7-9.77,7-7.54,0-10.47-6.5-10.47-12.8,0-7.09,3.52-13.2,10.76-13.2,7.64,0,10.07,6.6,10.07,11.26,0,.7,0,1.39,0,2ZM838,241.72c-.05-4.92-2.73-8.78-7.59-8.78-5.11,0-7.45,3.57-8,8.78Z"/><path class="cls-1" d="M847.18,249.16c.85,3.22,3.13,5.16,7.05,5.16,4.41,0,6.2-2,6.2-4.82s-1.19-4.21-6.75-5.55c-6.4-1.54-8-3.47-8-6.75s2.58-6.6,8.18-6.6,8.29,3.43,8.68,7h-2.48c-.45-2.09-2.08-4.66-6.3-4.66s-5.55,2.13-5.55,4.11c0,2.28,1.19,3.43,6.1,4.62,7,1.68,8.73,4,8.73,7.69,0,4.51-3.67,7.29-8.88,7.29-5.66,0-8.83-3-9.53-7.44Z"/><path class="cls-1" d="M887.47,248.71c-1.2,4.37-4.07,7.89-9.63,7.89-6.2,0-10.61-4.62-10.61-12.9,0-6.8,3.62-13.1,10.91-13.1a8.88,8.88,0,0,1,9.33,7.94h-2.53c-.75-2.88-2.63-5.6-6.85-5.6-5.26,0-8.23,4.46-8.23,10.66,0,5.9,2.77,10.67,8,10.67,3.62,0,5.81-1.84,7.1-5.56Z"/><path class="cls-1" d="M893.22,238c0-4.17-.05-6-.05-6.75h2.43c0,.79.1,2.38.1,5.55a9.41,9.41,0,0,1,8.63-6.15v2.68c-5.16.35-8.63,3.92-8.63,9.82V256h-2.48Z"/><path class="cls-1" d="M908.9,219.44h2.48v4.81H908.9Zm0,11.76h2.48V256H908.9Z"/><path class="cls-1" d="M922,252.33v13.59h-2.48V237.3c0-2,0-4.22,0-6.1h2.43c.1.94.1,2.43.1,4.46,1.53-3,4.26-5.06,8.73-5.06,5.85,0,9.92,4.91,9.92,12.36,0,8.92-4.76,13.64-10.77,13.64C925.52,256.6,923.24,254.66,922,252.33Zm16-9.28c0-5.75-2.78-10.07-7.69-10.07-6,0-8.48,3.77-8.48,10.52s1.93,10.77,8.13,10.77C935.14,254.27,938,249.9,938,243.05Z"/><path class="cls-1" d="M943.13,231.2h4.62v-7.74h2.48v7.74h5.9v2.33h-5.9v16.12c0,2.78.59,4.37,3,4.37a9.27,9.27,0,0,0,2.58-.3v2.18a8.61,8.61,0,0,1-3.07.45c-3.18,0-5-1.59-5-5.56V233.53h-4.62Z"/><path class="cls-1" d="M961.19,219.44h2.48v4.81h-2.48Zm0,11.76h2.48V256h-2.48Z"/><path class="cls-1" d="M991.9,243.55c0,6.9-3.82,13.05-11.22,13.05-6.69,0-10.86-5.51-10.86-13,0-7.09,3.92-13,11.11-13C987.53,230.6,991.9,235.76,991.9,243.55Zm-19.45,0c0,5.9,3.17,10.67,8.43,10.67s8.39-4.42,8.39-10.67c0-5.85-3-10.66-8.49-10.66S972.45,237.65,972.45,243.6Z"/><path class="cls-1" d="M998.05,237.45c0-2.18,0-4.27,0-6.25h2.43c.1.79.15,4,.1,4.71,1.09-2.53,3.12-5.31,8.23-5.31,4.42,0,8.34,2.48,8.34,9.33V256h-2.48V240.33c0-4.42-1.84-7.3-6.15-7.3-5.91,0-7.94,4.92-7.94,10.32V256h-2.48Z"/><path class="cls-1" d="M1039.18,246.68c1,4.61,4.11,7.34,9.82,7.34,6.35,0,8.78-3.18,8.78-7s-1.74-6.35-9.38-8.23c-7.34-1.84-10.51-4.22-10.51-9.23,0-4.56,3.32-8.83,10.76-8.83,7.64,0,10.86,4.66,11.31,8.88h-2.78c-.79-3.72-3.22-6.4-8.68-6.4-5,0-7.74,2.33-7.74,6.2s2.28,5.31,8.68,6.9c9.78,2.43,11.22,6.35,11.22,10.51,0,5.11-3.73,9.53-11.76,9.53-8.68,0-11.86-5.06-12.5-9.72Z"/><path class="cls-1" d="M1063.68,231.2h4.62v-7.74h2.48v7.74h5.9v2.33h-5.9v16.12c0,2.78.59,4.37,3,4.37a9.27,9.27,0,0,0,2.58-.3v2.18a8.61,8.61,0,0,1-3.07.45c-3.18,0-5-1.59-5-5.56V233.53h-4.62Z"/><path class="cls-1" d="M1099.6,248.76c0,2.43.05,6.3.05,7.24h-2.38a39.41,39.41,0,0,1-.15-4.31c-1,2.92-3.57,4.91-8,4.91-3.57,0-8.13-1.39-8.13-9V231.2h2.43V247c0,3.62,1.14,7.15,6,7.15,5.56,0,7.64-3.13,7.64-10.22V231.2h2.48Z"/><path class="cls-1" d="M1126.89,219.44v29.42c0,2.38,0,4.66,0,7.14h-2.39c-.09-.59-.14-2.92-.14-4.17-1.24,3-4,4.77-8.34,4.77-6.45,0-10.32-5.26-10.32-12.7,0-7.64,4.22-13.3,11-13.3,5,0,6.94,2.14,7.69,3.72V219.44Zm-18.51,24.36c0,6.79,3.52,10.47,7.79,10.47,6.55,0,8.33-4.52,8.33-11.27,0-6.39-1.53-10.06-7.88-10.06C1111.71,232.94,1108.38,236.85,1108.38,243.8Z"/><path class="cls-1" d="M1135,219.44h2.48v4.81H1135Zm0,11.76h2.48V256H1135Z"/><path class="cls-1" d="M1165.73,243.55c0,6.9-3.82,13.05-11.21,13.05-6.7,0-10.86-5.51-10.86-13,0-7.09,3.91-13,11.11-13C1161.37,230.6,1165.73,235.76,1165.73,243.55Zm-19.44,0c0,5.9,3.17,10.67,8.43,10.67s8.38-4.42,8.38-10.67c0-5.85-3-10.66-8.48-10.66C1149,232.94,1146.29,237.65,1146.29,243.6Z"/><circle class="cls-2" cx="228" cy="153" r="116"/><ellipse class="cls-3" cx="249.31" cy="128.09" rx="73.54" ry="86.12" transform="matrix(0.58, -0.81, 0.81, 0.58, 0.39, 256.93)"/><path class="cls-4" d="M202.87,93,279,148.46a5.23,5.23,0,0,1,0,8.45l-75.64,55.76a5.24,5.24,0,0,1-8.35-4.2l-.46-111.26A5.24,5.24,0,0,1,202.87,93Z"/><ellipse class="cls-5" cx="272.81" cy="87.15" rx="20.09" ry="28.45" transform="translate(43.62 258.88) rotate(-54.56)"/><path class="cls-1" d="M18.32,136.75a92,92,0,0,1,6.45-14.21,144,144,0,0,1,8.32-13.2l2.28-3.2c.77-1.06,1.59-2.06,2.39-3.1C39.35,101,41,99,42.72,97c.83-1,1.71-2,2.59-3L48,91.09c1.81-1.91,3.66-3.77,5.5-5.67a213.34,213.34,0,0,1,51.6-36.87c2.37-1.21,4.79-2.33,7.19-3.49,1.2-.58,2.4-1.17,3.62-1.72l3.66-1.6c1.22-.54,2.46-1,3.69-1.55s2.46-1,3.72-1.48l7.5-2.77c2.5-1,5.05-1.73,7.58-2.57,1.26-.42,2.54-.82,3.81-1.2s2.55-.8,3.84-1.12c5.15-1.32,10.29-2.82,15.49-3.89,2.6-.58,5.2-1.15,7.81-1.66l7.86-1.3c5.23-.93,10.49-1.5,15.75-2.16,1.32-.16,2.64-.3,3.95-.41l4-.27,7.9-.52c2.64-.22,5.27-.21,7.9-.31l7.9-.2c5.27.05,10.53.26,15.8.39,2.63.14,5.27.34,7.91.51s5.27.28,7.9.61l7.89,1c2.63.32,5.26.63,7.88,1.09,5.25.87,10.5,1.61,15.69,2.9,2.6.59,5.2,1.13,7.78,1.76l7.74,2.05,3.86,1c1.28.39,2.54.82,3.82,1.23l7.6,2.5,7.52,2.79c2.5.9,5,1.9,7.43,3s4.91,2.08,7.31,3.27l7.21,3.49c2.39,1.18,4.73,2.49,7.06,3.79,1.17.65,2.34,1.27,3.49,2l3.42,2.08c4.59,2.7,9,5.66,13.36,8.75l6.4,4.75c2.09,1.65,4.17,3.3,6.2,5s4,3.51,6,5.26,3.87,3.6,5.74,5.45,3.66,3.82,5.48,5.71,3.53,3.9,5.21,5.92c3.32,4.09,6.6,8.15,9.5,12.52a135.75,135.75,0,0,1,8.14,13.34,88.56,88.56,0,0,1,6.2,14.33l.08.27a1.38,1.38,0,0,1-2.48,1.17,113.8,113.8,0,0,0-8.83-11.57c-3.16-3.71-6.53-7.25-10-10.67a200.66,200.66,0,0,0-22.35-18.92A220.63,220.63,0,0,0,369.45,81.3,252.39,252.39,0,0,0,343,68.77l-6.84-2.63c-2.27-.89-4.61-1.6-6.91-2.41-4.59-1.65-9.31-2.93-14-4.37l-7.09-1.84-3.55-.91-3.58-.79-7.16-1.54c-2.4-.47-4.81-.86-7.21-1.29a329.19,329.19,0,0,0-58.41-4.67,336.69,336.69,0,0,0-58.37,5.07,283.83,283.83,0,0,0-56.25,16A243.66,243.66,0,0,0,62.48,97.64a213.14,213.14,0,0,0-22.55,18.69c-3.52,3.38-7,6.86-10.19,10.52a117.6,117.6,0,0,0-9.06,11.4A1.39,1.39,0,0,1,18.22,137Z"/><path class="cls-1" d="M107.53,222.12a82,82,0,0,0,6.66,4.95c2.25,1.57,4.55,3.06,6.91,4.42s4.69,2.73,7.07,4,4.8,2.44,7.25,3.52c4.86,2.25,9.79,4.24,14.76,6,2.52.83,5,1.73,7.53,2.48,1.25.41,2.51.78,3.79,1.12s2.51.75,3.8,1.06l3.81,1c1.28.32,2.57.58,3.85.87,2.54.63,5.14,1.08,7.7,1.61,5.19.85,10.34,1.8,15.58,2.32s10.46,1.08,15.72,1.35c2.63.19,5.28.24,7.91.37s5.29.05,7.94.1,5.29,0,7.93,0l7.92-.3c2.62-.17,5.26-.28,7.88-.5l3.93-.37,2-.17,2-.22,3.91-.44c1.31-.15,2.6-.38,3.9-.56,2.6-.36,5.18-.8,7.77-1.24s5.14-1,7.7-1.55l3.85-.86c1.27-.3,2.53-.66,3.81-1a171.07,171.07,0,0,0,29.8-10.69,129,129,0,0,0,14.22-7.63c2.34-1.39,4.6-2.92,6.83-4.53a74.45,74.45,0,0,0,6.55-5.08l.14-.12a.64.64,0,0,1,.93.86,59.37,59.37,0,0,1-5.44,6.46c-1.93,2-3.95,4-6.06,5.82a115.59,115.59,0,0,1-13.39,10.13,142.36,142.36,0,0,1-30.17,14.59,177.21,177.21,0,0,1-32.55,8,220,220,0,0,1-33.42,2.44,223.84,223.84,0,0,1-33.41-2.65c-5.53-.81-11-2-16.44-3.29s-10.8-2.94-16.07-4.83a166.39,166.39,0,0,1-15.51-6.41A145,145,0,0,1,131.66,245a120.5,120.5,0,0,1-13.47-10q-3.21-2.72-6.15-5.72a63.9,63.9,0,0,1-5.57-6.35.64.64,0,0,1,.13-.89.65.65,0,0,1,.79,0Z"/></svg>